<?xml version="1.0" encoding="UTF-8"?>
<svg width="1200" height="630" viewBox="0 0 1200 630" fill="none" xmlns="http://www.w3.org/2000/svg">
  <!-- 背景 -->
  <rect width="1200" height="630" fill="#3B82F6"/>
  
  <!-- グラデーション背景 -->
  <rect width="1200" height="630" fill="url(#paint0_linear)"/>
  
  <!-- タイトル -->
  <text x="600" y="250" font-family="sans-serif" font-size="80" font-weight="bold" fill="white" text-anchor="middle">
    適当に相槌チャット
  </text>
  
  <!-- 説明文 -->
  <text x="600" y="350" font-family="sans-serif" font-size="32" fill="white" text-anchor="middle" opacity="0.9">
    あなたの話に、ちょうどいい感じで相槌を打ちます
  </text>
  
  <!-- 大きな吹き出し -->
  <path d="M800 400C800 333.333 733.333 280 650 280C566.667 280 500 333.333 500 400C500 444.444 533.333 483.333 583.333 503.704C580.556 516.667 576.389 528.704 570.37 539.815C566.667 545.37 573.148 553.704 580.556 552.778C616.667 547.222 645.37 533.333 666.667 513.889C675.926 515.741 685.648 516.667 695.833 516.667C779.167 516.667 845.833 463.333 845.833 396.667" 
        fill="white" opacity="0.2"/>
  
  <!-- 定義 -->
  <defs>
    <linearGradient id="paint0_linear" x1="0" y1="0" x2="1200" y2="630" gradientUnits="userSpaceOnUse">
      <stop stop-color="#60A5FA"/>
      <stop offset="1" stop-color="#3B82F6"/>
    </linearGradient>
  </defs>
</svg>
